<svg id="Layer_1" data-name="Layer 1" xmlns="http://www.w3.org/2000/svg" viewBox="0 0 750 258"><defs><style>.cls-1,.cls-2,.cls-3,.cls-4,.cls-5{fill:#86ba65;}.cls-1{opacity:0.5;}.cls-2{opacity:0.7;}.cls-3{opacity:0.8;}.cls-4{opacity:0.6;}</style></defs><polygon class="cls-1" points="0 174.643 31.165 67.324 12.491 39.672 0 174.643"/><polygon class="cls-2" points="12.491 39.672 72.329 0.758 144.657 47.795 72.329 94.833 31.165 67.324 12.491 39.672"/><polygon class="cls-3" points="31.165 67.324 72.329 94.833 72.329 257.242 0 210.205 0 174.643 31.165 67.324"/><polygon class="cls-4" points="72.329 94.833 72.329 257.242 144.657 210.553 144.657 47.795 72.329 94.833"/><path class="cls-5" d="M250.81822,98.10819l-16.846,16.09082L217.128,98.10819l-5.90928-4.90285V139.215H189.34621V47.44745h.50257l44.12347,40.10119,44.12347-40.10119h.62842V139.215H256.60078V93.20534Z"/><path class="cls-5" d="M324.85788,139.215H300.8475L345.852,47.44745h1.131L391.98659,139.215H367.97621l-6.411-13.828H331.14387Zm12.94869-29.29037h17.22182a220.0323,220.0323,0,0,1-8.548-21.62166L342.709,97.73105Q339.43839,106.15426,337.80657,109.92459Z"/><path class="cls-5" d="M414.23667,139.215V48.7043H447.1726q16.84382,0,26.7133,8.10834,9.86646,8.10811,9.8682,22.69059a28.92442,28.92442,0,0,1-4.33736,16.02789,26.6384,26.6384,0,0,1-12.2569,10.11948L485.38765,139.215H461.37728L446.795,109.422H436.73848V139.215Zm33.94107-71.15142H436.73848V91.06835H448.3036q5.78082,0,8.988-2.89128,3.20548-2.89041,3.20636-8.67384,0-5.53019-3.33136-8.48548Q453.83358,68.0655,448.17774,68.06354Z"/><path class="cls-5" d="M565.84,91.69677a19.51111,19.51111,0,0,1,10.55911,7.54285A21.0418,21.0418,0,0,1,580.799,112.3133q0,13.07586-9.74233,19.98767-9.74277,6.91485-26.96415,6.914H511.785V48.7043h30.04464q15.71238,0,25.64481,6.53684,9.92895,6.53793,9.93068,19.23382A17.95985,17.95985,0,0,1,565.84,91.69677ZM533.65839,67.058v18.605h9.30226a15.18153,15.18153,0,0,0,6.91442-1.25728q4.3981-1.88527,4.39984-7.7937a8.70832,8.70832,0,0,0-2.95464-7.10277q-2.95421-2.451-8.10791-2.45121Zm12.19354,33.56436H533.65839v20.23895h11.691a12.98272,12.98272,0,0,0,8.42212-2.63956,8.99547,8.99547,0,0,0,3.26885-7.417,9.39407,9.39407,0,0,0-3.07963-7.54241A12.02984,12.02984,0,0,0,545.85193,100.62233Z"/><path class="cls-5" d="M663.51422,119.85571V139.215H607.82477V48.7043h23.00437v71.15141Z"/><path class="cls-5" d="M750,119.85571V139.215H688.77971V48.7043h59.335V68.06354H711.78408V84.15436h31.05065V102.508H711.78408v17.34767Z"/><path class="cls-5" d="M200.27489,209.34084H189.34621l20.48557-41.7726h.51463l20.48556,41.7726H219.9033l-2.919-6.29449H203.13655Zm5.89544-13.33308h7.83921a100.07623,100.07623,0,0,1-3.89092-9.842l-1.71768,4.29166Q206.91274,194.29176,206.17033,196.00776Z"/><path class="cls-5" d="M276.03823,168.14066v41.77259h-.40158l-21.11492-18.59747-3.31893-2.74693v20.772H240.96086v-41.7726h.45726l20.94282,18.5401q.86054.68652,1.60294,1.37347,1.25788,1.0301,1.77336,1.43041V168.14066Z"/><path class="cls-5" d="M297.03843,209.34084H286.10807l20.48725-41.7726H307.11l20.48556,41.7726H316.66515l-2.91735-6.29449H299.90009Zm5.89375-13.33308h7.83922a100.07683,100.07683,0,0,1-3.89093-9.842l-1.716,4.29166Q303.67375,194.29176,302.93218,196.00776Z"/><path class="cls-5" d="M363.07278,200.52847v8.81237H337.72271V168.14066h10.47141v32.38781Z"/><path class="cls-5" d="M380.00994,193.60461l-15.04907-25.464h11.90224l8.35554,15.4498,8.41121-15.4498h11.90225l-15.04907,25.464v15.73623h-10.4731Z"/><path class="cls-5" d="M443.29736,168.14066V176.953h-10.986v32.38781H421.78254V176.953H410.79481v-8.81237Z"/><path class="cls-5" d="M464.92691,168.14066v41.20018H454.4555V168.14066Z"/><path class="cls-5" d="M510.87559,170.08612v9.556a24.03009,24.03009,0,0,0-10.92867-2.74651,12.03255,12.03255,0,0,0-8.9849,3.43324,11.52381,11.52381,0,0,0-3.31893,8.41164,11.99306,11.99306,0,0,0,3.20588,8.412,11.35866,11.35866,0,0,0,8.639,3.43324,25.30371,25.30371,0,0,0,11.67446-2.74693v9.67079a26.98951,26.98951,0,0,1-12.589,2.63219,20.58037,20.58037,0,0,1-15.33591-6.18017,20.90072,20.90072,0,0,1-6.12323-15.22117,20.685,20.685,0,0,1,6.1806-15.22118,21.559,21.559,0,0,1,15.7358-6.17975A24.997,24.997,0,0,1,510.87559,170.08612Z"/><path class="cls-5" d="M534.567,210.14188a31.5646,31.5646,0,0,1-12.47593-2.23146V197.8389a25.63322,25.63322,0,0,0,9.729,2.97556,17.88287,17.88287,0,0,0,3.26156.05737q5.26438-.34294,5.26439-2.86124a2.96232,2.96232,0,0,0-1.66031-2.51746,42.61111,42.61111,0,0,0-5.95112-2.63262,26.03962,26.03962,0,0,1-8.64069-4.978q-2.74608-2.803-2.74693-8.06869a10.81575,10.81575,0,0,1,4.2925-9.041q4.29251-3.43325,11.33025-3.43324a28.27567,28.27567,0,0,1,10.986,1.94546v9.67036a18.75339,18.75339,0,0,0-10.1272-2.57482,9.44793,9.44793,0,0,0-4.49329.91536,2.75377,2.75377,0,0,0-1.6873,2.46093,3.06728,3.06728,0,0,0,1.60293,2.43183,32.54624,32.54624,0,0,0,5.60692,2.7752q6.00849,2.34682,8.81279,5.15007,2.86,2.74672,2.86,7.83964a10.661,10.661,0,0,1-4.20476,8.95537Q542.11941,210.14231,534.567,210.14188Z"/></svg>