<svg id="Layer_1" data-name="Layer 1" xmlns="http://www.w3.org/2000/svg" viewBox="0 0 750 258"><defs><style>.cls-1,.cls-2,.cls-3,.cls-4,.cls-5{fill:#f50;}.cls-1{opacity:0.5;}.cls-2{opacity:0.7;}.cls-3{opacity:0.8;}.cls-4{opacity:0.6;}</style></defs><polygon class="cls-1" points="-0.178 174.643 30.987 67.324 12.312 39.672 -0.178 174.643"/><polygon class="cls-2" points="12.312 39.672 72.15 0.758 144.479 47.795 72.15 94.833 30.987 67.324 12.312 39.672"/><polygon class="cls-3" points="30.987 67.324 72.15 94.833 72.15 257.242 -0.178 210.205 -0.178 174.643 30.987 67.324"/><polygon class="cls-4" points="72.15 94.833 72.15 257.242 144.479 210.553 144.479 47.795 72.15 94.833"/><path class="cls-5" d="M250.63992,98.10819l-16.846,16.09082L216.9497,98.10819l-5.90928-4.90285V139.215H189.16791V47.44745h.50257l44.12346,40.10119,44.12347-40.10119h.62843V139.215H256.42248V93.20534Z"/><path class="cls-5" d="M324.67957,139.215H300.6692l45.00448-91.76751h1.131L391.80828,139.215H367.79791l-6.411-13.828H330.96557Zm12.9487-29.29037h17.22181a220.03486,220.03486,0,0,1-8.548-21.62166l-3.77142,9.42812Q339.2601,106.15426,337.62827,109.92459Z"/><path class="cls-5" d="M414.05837,139.215V48.7043H446.9943q16.8438,0,26.7133,8.10834,9.86644,8.10811,9.86819,22.69059a28.92442,28.92442,0,0,1-4.33735,16.02789,26.63843,26.63843,0,0,1-12.25691,10.11948L485.20935,139.215H461.199L446.61672,109.422H436.56017V139.215Zm33.94106-71.15142H436.56017V91.06835h11.56512q5.78082,0,8.988-2.89128,3.20549-2.89041,3.20636-8.67384,0-5.53019-3.33135-8.48548Q453.65526,68.0655,447.99943,68.06354Z"/><path class="cls-5" d="M565.66172,91.69677a19.51113,19.51113,0,0,1,10.55912,7.54285,21.04185,21.04185,0,0,1,4.39984,13.07368q0,13.07586-9.74233,19.98767-9.74277,6.91485-26.96415,6.914H511.6067V48.7043h30.04465q15.71238,0,25.6448,6.53684,9.92895,6.53793,9.93069,19.23382a17.95984,17.95984,0,0,1-11.56512,17.22181ZM533.48008,67.058v18.605h9.30226a15.1815,15.1815,0,0,0,6.91442-1.25728q4.3981-1.88527,4.39985-7.7937a8.70835,8.70835,0,0,0-2.95464-7.10277q-2.95422-2.451-8.10791-2.45121Zm12.19354,33.56436H533.48008v20.23895h11.691a12.9827,12.9827,0,0,0,8.42212-2.63956,8.99548,8.99548,0,0,0,3.26886-7.417,9.394,9.394,0,0,0-3.07964-7.54241A12.02984,12.02984,0,0,0,545.67362,100.62233Z"/><path class="cls-5" d="M663.33591,119.85571V139.215H607.64646V48.7043h23.00437v71.15141Z"/><path class="cls-5" d="M749.82169,119.85571V139.215H688.6014V48.7043h59.335V68.06354H711.60577V84.15436h31.05066V102.508H711.60577v17.34767Z"/><path class="cls-5" d="M189.16791,209.11221V167.912H204.1613q7.66626,0,12.15871,3.69055,4.49245,3.69141,4.49161,10.32884a13.16589,13.16589,0,0,1-1.97415,7.2959,12.12621,12.12621,0,0,1-5.57823,4.60634l8.29648,15.27855H210.62705l-6.63786-13.56171h-4.57766v13.56171Zm15.45065-32.38781h-5.207v10.47141h5.26439a5.89493,5.89493,0,0,0,4.09172-1.3161,5.0509,5.0509,0,0,0,1.45783-3.94829,4.89225,4.89225,0,0,0-1.5152-3.86266A5.95237,5.95237,0,0,0,204.61856,176.7244Z"/><path class="cls-5" d="M261.44022,200.29984v8.81237H233.5727V167.912h27.00868v8.81237H244.04411v7.32416h14.13455v8.35469H244.04411v7.89659Z"/><path class="cls-5" d="M280.15074,209.11221H269.22207l20.48557-41.7726h.51462l20.48557,41.7726H299.77916l-2.919-6.29449H283.01241Zm5.89544-13.33308h7.83922a100.07525,100.07525,0,0,1-3.89092-9.842l-1.71768,4.29166Q286.78861,194.06313,286.04618,195.77913Z"/><path class="cls-5" d="M346.18509,200.29984v8.81237H320.83672V167.912h10.47141v32.38781Z"/><path class="cls-5" d="M382.34909,167.912v8.81237h-10.986v32.38781H360.83427V176.7244H349.84654V167.912Z"/><path class="cls-5" d="M402.66255,193.376l-15.04907-25.464h11.90225l8.35553,15.4498,8.41121-15.4498h11.90225l-15.04907,25.464v15.73623h-10.4731Z"/></svg>