<svg id="Layer_1" data-name="Layer 1" xmlns="http://www.w3.org/2000/svg" viewBox="0 0 750 258"><defs><style>.cls-1,.cls-2,.cls-3,.cls-4,.cls-5{fill:#151515;}.cls-1{opacity:0.5;}.cls-2{opacity:0.7;}.cls-3{opacity:0.8;}.cls-4{opacity:0.6;}</style></defs><polygon class="cls-1" points="0 174.643 31.165 67.324 12.491 39.672 0 174.643"/><polygon class="cls-2" points="12.491 39.672 72.329 0.758 144.657 47.795 72.329 94.833 31.165 67.324 12.491 39.672"/><polygon class="cls-3" points="31.165 67.324 72.329 94.833 72.329 257.242 0 210.205 0 174.643 31.165 67.324"/><polygon class="cls-4" points="72.329 94.833 72.329 257.242 144.657 210.553 144.657 47.795 72.329 94.833"/><path class="cls-5" d="M250.81822,98.10819l-16.846,16.09082L217.128,98.10819l-5.90928-4.90285V139.215H189.34621V47.44745h.50257l44.12347,40.10119,44.12347-40.10119h.62842V139.215H256.60078V93.20534Z"/><path class="cls-5" d="M324.85788,139.215H300.8475L345.852,47.44745h1.131L391.98659,139.215H367.97621l-6.411-13.828H331.14387Zm12.94869-29.29037h17.22182a220.0323,220.0323,0,0,1-8.548-21.62166L342.709,97.73105Q339.43839,106.15426,337.80657,109.92459Z"/><path class="cls-5" d="M414.23667,139.215V48.7043H447.1726q16.84382,0,26.7133,8.10834,9.86646,8.10811,9.8682,22.69059a28.92442,28.92442,0,0,1-4.33736,16.02789,26.6384,26.6384,0,0,1-12.2569,10.11948L485.38765,139.215H461.37728L446.795,109.422H436.73848V139.215Zm33.94107-71.15142H436.73848V91.06835H448.3036q5.78082,0,8.988-2.89128,3.20548-2.89041,3.20636-8.67384,0-5.53019-3.33136-8.48548Q453.83358,68.0655,448.17774,68.06354Z"/><path class="cls-5" d="M565.84,91.69677a19.51111,19.51111,0,0,1,10.55911,7.54285A21.0418,21.0418,0,0,1,580.799,112.3133q0,13.07586-9.74233,19.98767-9.74277,6.91485-26.96415,6.914H511.785V48.7043h30.04464q15.71238,0,25.64481,6.53684,9.92895,6.53793,9.93068,19.23382A17.95985,17.95985,0,0,1,565.84,91.69677ZM533.65839,67.058v18.605h9.30226a15.18153,15.18153,0,0,0,6.91442-1.25728q4.3981-1.88527,4.39984-7.7937a8.70832,8.70832,0,0,0-2.95464-7.10277q-2.95421-2.451-8.10791-2.45121Zm12.19354,33.56436H533.65839v20.23895h11.691a12.98272,12.98272,0,0,0,8.42212-2.63956,8.99547,8.99547,0,0,0,3.26885-7.417,9.39407,9.39407,0,0,0-3.07963-7.54241A12.02984,12.02984,0,0,0,545.85193,100.62233Z"/><path class="cls-5" d="M663.51422,119.85571V139.215H607.82477V48.7043h23.00437v71.15141Z"/><path class="cls-5" d="M750,119.85571V139.215H688.77971V48.7043h59.335V68.06354H711.78408V84.15436h31.05065V102.508H711.78408v17.34767Z"/><path class="cls-5" d="M217.32847,190.62905l-7.66711,7.32459-7.6688-7.32459-2.68956-2.23188v20.94367h-9.95679v-41.7726h.22948l20.08567,18.2541,20.084-18.2541h.28684v41.7726H219.96067V188.39717Z"/><path class="cls-5" d="M251.03069,209.34084H240.102l20.48557-41.7726h.51462l20.48557,41.7726H270.65911l-2.919-6.29449H253.89236Zm5.89544-13.33308h7.83922a100.07623,100.07623,0,0,1-3.89092-9.842l-1.71768,4.29166Q257.66856,194.29176,256.92613,196.00776Z"/><path class="cls-5" d="M305.44964,196.23681h-3.26156v13.104H291.71667V168.14066h13.733q7.66626,0,12.18909,3.60492,4.576,3.60473,4.57765,10.41447,0,6.86647-4.57765,10.47183Q313.1159,196.23659,305.44964,196.23681Zm.45726-19.28378h-3.71882v10.47141h3.77619a6.03058,6.03058,0,0,0,4.14908-1.34478,4.96259,4.96259,0,0,0,1.51688-3.91961,4.84878,4.84878,0,0,0-1.54557-3.86266A6.14711,6.14711,0,0,0,305.9069,176.953Z"/><path class="cls-5" d="M347.16487,196.23681h-3.26156v13.104H333.4319V168.14066h13.733q7.66626,0,12.18909,3.60492,4.576,3.60473,4.57765,10.41447,0,6.86647-4.57765,10.47183Q354.83113,196.23659,347.16487,196.23681Zm.45726-19.28378h-3.71882v10.47141h3.77619a6.03058,6.03058,0,0,0,4.14908-1.34478,4.96259,4.96259,0,0,0,1.51688-3.91961,4.84878,4.84878,0,0,0-1.54557-3.86266A6.14711,6.14711,0,0,0,347.62213,176.953Z"/><path class="cls-5" d="M385.61685,168.14066v41.20018H375.14544V168.14066Z"/><path class="cls-5" d="M435.22867,168.14066v41.77259h-.3999l-21.11492-18.59747-3.31893-2.74693v20.772H400.15129v-41.7726h.45895l20.94282,18.5401q.858.68652,1.60125,1.37347,1.26042,1.0301,1.775,1.43041V168.14066Z"/><path class="cls-5" d="M484.039,189.99969V207.052a31.58648,31.58648,0,0,1-14.305,3.08987q-9.84288,0-16.13738-6.1228a21.76371,21.76371,0,0,1,0-30.49972,21.56025,21.56025,0,0,1,15.73749-6.17975,30.44964,30.44964,0,0,1,13.21835,2.74651v9.556a29.30744,29.30744,0,0,0-12.30383-2.74651q-5.72249,0-9.04058,3.43324a11.51706,11.51706,0,0,0-3.31892,8.41164,12.2789,12.2789,0,0,0,3.20419,8.52637,11.365,11.365,0,0,0,8.64068,3.43324,17.63394,17.63394,0,0,0,4.29251-.51505V189.99969Z"/></svg>